<svg width="175" height="40" viewBox="0 0 175 40" fill="none" xmlns="http://www.w3.org/2000/svg">
<rect y="2.55319" width="175" height="34.0426" fill="#FFFEFE"/>
<path d="M29.964 11.4C29.964 14.76 29.94 17.4 29.892 19.32H33.564L33.924 16.836C35.148 16.836 36.336 17.136 37.488 17.736V24.864L35.112 25.044C34.536 24.18 34.2 23.424 34.104 22.776H29.856L29.784 29.544L33.348 29.94C33.348 30.876 33.072 31.896 32.52 33H22.692L22.368 31.02C23.928 30.42 24.936 30.072 25.392 29.976C25.368 28.56 25.344 26.568 25.32 24C25.224 18.24 25.14 13.884 25.068 10.932L22.08 9.996L22.368 7.8H40.044C40.116 8.448 40.152 9.276 40.152 10.284C40.152 11.268 39.972 12.624 39.612 14.352C39.084 14.52 38.28 14.604 37.2 14.604L36.408 14.568H36.228L35.4 11.4H29.964ZM49.9319 6.252C50.3879 6.252 50.6759 6.264 50.7959 6.288C50.7959 7.536 50.6399 8.628 50.3279 9.564C50.3039 11.052 50.2679 13.152 50.2199 15.864C50.1239 21.816 50.0519 26.376 50.0039 29.544L52.8119 29.868C52.8119 30.852 52.5359 31.896 51.9839 33H43.0199L42.6959 31.02C44.1839 30.468 45.2639 30.108 45.9359 29.94L45.2519 9.96C44.1239 9.84 43.1759 9.66 42.4079 9.42C42.4079 8.532 42.4919 7.668 42.6599 6.828C44.0759 6.444 46.4999 6.252 49.9319 6.252ZM63.6811 17.16C62.8171 17.16 61.8331 17.376 60.7291 17.808C60.4171 18.288 60.1171 19.14 59.8291 20.364C59.5651 21.564 59.4331 22.776 59.4331 24C59.4331 26.256 59.7691 27.864 60.4411 28.824C61.1131 29.76 62.1931 30.228 63.6811 30.228C65.1931 30.228 66.2851 29.76 66.9571 28.824C67.6291 27.864 67.9651 26.232 67.9651 23.928C67.9651 21.6 67.6171 19.896 66.9211 18.816C66.2491 17.712 65.1691 17.16 63.6811 17.16ZM63.6811 14.28C66.4891 14.28 68.7451 15.144 70.4491 16.872C72.1771 18.576 73.0411 20.964 73.0411 24.036C73.0411 27.084 72.1891 29.412 70.4851 31.02C68.7811 32.628 66.5131 33.432 63.6811 33.432C60.8491 33.432 58.5811 32.628 56.8771 31.02C55.1971 29.412 54.3571 27.084 54.3571 24.036C54.3571 20.964 55.2091 18.576 56.9131 16.872C58.6171 15.144 60.8731 14.28 63.6811 14.28ZM86.3642 14.712C86.6762 14.688 87.2762 14.676 88.1642 14.676C89.0762 14.676 89.8922 14.7 90.6122 14.748L92.9162 22.164L94.0322 27.24H94.6442L95.6882 22.236L97.0562 17.628C96.2402 17.484 95.2322 17.172 94.0322 16.692L94.3562 14.712H103.32C103.872 15.816 104.148 16.86 104.148 17.844C103.212 17.988 102.276 18.084 101.34 18.132C100.788 20.004 99.9362 22.764 98.7842 26.412C97.6562 30.036 96.9722 32.232 96.7322 33H91.8362L88.4882 21.912H88.3442L84.8882 33H80.2442L75.6002 18.168L72.7922 17.844C72.7922 16.86 73.0682 15.816 73.6202 14.712H82.5842L82.9082 16.692C81.9242 17.148 81.0962 17.46 80.4242 17.628L81.6122 22.2L82.5122 27.24H83.0882L84.1322 22.164L86.3642 14.712ZM115.537 29.904C116.353 29.904 118.009 29.34 120.505 28.212C121.033 28.98 121.429 29.868 121.693 30.876C120.373 31.692 119.077 32.328 117.805 32.784C116.557 33.216 115.669 33.432 115.141 33.432C112.237 33.432 110.029 32.628 108.517 31.02C107.029 29.412 106.285 27.132 106.285 24.18C106.285 21.204 107.029 18.816 108.517 17.016C110.005 15.192 112.213 14.28 115.141 14.28C117.469 14.28 119.245 15.036 120.469 16.548C121.693 18.06 122.305 20.028 122.305 22.452C122.305 22.956 122.017 23.532 121.441 24.18L111.073 24C111.121 25.92 111.481 27.384 112.153 28.392C112.825 29.4 113.953 29.904 115.537 29.904ZM114.817 17.268C113.905 17.268 113.053 17.448 112.261 17.808C111.709 18.96 111.361 20.028 111.217 21.012C113.089 20.94 115.213 20.892 117.589 20.868C117.469 18.468 116.545 17.268 114.817 17.268ZM135.723 18.168C135.675 18.048 135.435 17.988 135.003 17.988C134.571 17.988 133.827 18.312 132.771 18.96C132.675 23.664 132.615 27.192 132.591 29.544L135.399 29.904C135.399 30.936 135.123 31.968 134.571 33H125.607L125.283 31.02C126.771 30.468 127.851 30.108 128.523 29.94L128.127 18.276C126.879 18.18 125.835 18 124.995 17.736L125.247 15.144C125.895 14.856 128.235 14.664 132.267 14.568C132.483 14.784 132.591 15.204 132.591 15.828C134.703 14.796 136.035 14.28 136.587 14.28C137.163 14.28 137.859 14.424 138.675 14.712C139.515 14.976 140.151 15.264 140.583 15.576V16.188C140.583 18.156 140.343 19.98 139.863 21.66C139.455 21.828 138.915 21.912 138.243 21.912C137.571 21.912 136.947 21.876 136.371 21.804C136.299 21.492 136.083 20.28 135.723 18.168Z" fill="#B03030" fill-opacity="0.7"/>
</svg>
