<svg width="175" height="41" viewBox="0 0 175 41" fill="none" xmlns="http://www.w3.org/2000/svg">
<rect y="0.553192" width="175" height="40" fill="#FFFEFE"/>
<path d="M8.964 12.4C8.964 15.76 8.94 18.4 8.892 20.32H12.564L12.924 17.836C14.148 17.836 15.336 18.136 16.488 18.736V25.864L14.112 26.044C13.536 25.18 13.2 24.424 13.104 23.776H8.856L8.784 30.544L12.348 30.94C12.348 31.876 12.072 32.896 11.52 34H1.692L1.368 32.02C2.928 31.42 3.936 31.072 4.392 30.976C4.368 29.56 4.344 27.568 4.32 25C4.224 19.24 4.14 14.884 4.068 11.932L1.08 10.996L1.368 8.8H19.044C19.116 9.448 19.152 10.276 19.152 11.284C19.152 12.268 18.972 13.624 18.612 15.352C18.084 15.52 17.28 15.604 16.2 15.604L15.408 15.568H15.228L14.4 12.4H8.964ZM28.9319 7.252C29.3879 7.252 29.6759 7.264 29.7959 7.288C29.7959 8.536 29.6399 9.628 29.3279 10.564C29.3039 12.052 29.2679 14.152 29.2199 16.864C29.1239 22.816 29.0519 27.376 29.0039 30.544L31.8119 30.868C31.8119 31.852 31.5359 32.896 30.9839 34H22.0199L21.6959 32.02C23.1839 31.468 24.2639 31.108 24.9359 30.94L24.2519 10.96C23.1239 10.84 22.1759 10.66 21.4079 10.42C21.4079 9.532 21.4919 8.668 21.6599 7.828C23.0759 7.444 25.4999 7.252 28.9319 7.252ZM42.6811 18.16C41.8171 18.16 40.8331 18.376 39.7291 18.808C39.4171 19.288 39.1171 20.14 38.8291 21.364C38.5651 22.564 38.4331 23.776 38.4331 25C38.4331 27.256 38.7691 28.864 39.4411 29.824C40.1131 30.76 41.1931 31.228 42.6811 31.228C44.1931 31.228 45.2851 30.76 45.9571 29.824C46.6291 28.864 46.9651 27.232 46.9651 24.928C46.9651 22.6 46.6171 20.896 45.9211 19.816C45.2491 18.712 44.1691 18.16 42.6811 18.16ZM42.6811 15.28C45.4891 15.28 47.7451 16.144 49.4491 17.872C51.1771 19.576 52.0411 21.964 52.0411 25.036C52.0411 28.084 51.1891 30.412 49.4851 32.02C47.7811 33.628 45.5131 34.432 42.6811 34.432C39.8491 34.432 37.5811 33.628 35.8771 32.02C34.1971 30.412 33.3571 28.084 33.3571 25.036C33.3571 21.964 34.2091 19.576 35.9131 17.872C37.6171 16.144 39.8731 15.28 42.6811 15.28ZM65.3642 15.712C65.6762 15.688 66.2762 15.676 67.1642 15.676C68.0762 15.676 68.8922 15.7 69.6122 15.748L71.9162 23.164L73.0322 28.24H73.6442L74.6882 23.236L76.0562 18.628C75.2402 18.484 74.2322 18.172 73.0322 17.692L73.3562 15.712H82.3202C82.8722 16.816 83.1482 17.86 83.1482 18.844C82.2122 18.988 81.2762 19.084 80.3402 19.132C79.7882 21.004 78.9362 23.764 77.7842 27.412C76.6562 31.036 75.9722 33.232 75.7322 34H70.8362L67.4882 22.912H67.3442L63.8882 34H59.2442L54.6002 19.168L51.7922 18.844C51.7922 17.86 52.0682 16.816 52.6202 15.712H61.5842L61.9082 17.692C60.9242 18.148 60.0962 18.46 59.4242 18.628L60.6122 23.2L61.5122 28.24H62.0882L63.1322 23.164L65.3642 15.712ZM94.5368 30.904C95.3528 30.904 97.0088 30.34 99.5048 29.212C100.033 29.98 100.429 30.868 100.693 31.876C99.3728 32.692 98.0768 33.328 96.8048 33.784C95.5568 34.216 94.6688 34.432 94.1408 34.432C91.2368 34.432 89.0288 33.628 87.5168 32.02C86.0288 30.412 85.2848 28.132 85.2848 25.18C85.2848 22.204 86.0288 19.816 87.5168 18.016C89.0048 16.192 91.2128 15.28 94.1408 15.28C96.4688 15.28 98.2448 16.036 99.4688 17.548C100.693 19.06 101.305 21.028 101.305 23.452C101.305 23.956 101.017 24.532 100.441 25.18L90.0728 25C90.1208 26.92 90.4808 28.384 91.1528 29.392C91.8248 30.4 92.9528 30.904 94.5368 30.904ZM93.8168 18.268C92.9048 18.268 92.0528 18.448 91.2608 18.808C90.7088 19.96 90.3608 21.028 90.2168 22.012C92.0888 21.94 94.2128 21.892 96.5888 21.868C96.4688 19.468 95.5448 18.268 93.8168 18.268ZM114.723 19.168C114.675 19.048 114.435 18.988 114.003 18.988C113.571 18.988 112.827 19.312 111.771 19.96C111.675 24.664 111.615 28.192 111.591 30.544L114.399 30.904C114.399 31.936 114.123 32.968 113.571 34H104.607L104.283 32.02C105.771 31.468 106.851 31.108 107.523 30.94L107.127 19.276C105.879 19.18 104.835 19 103.995 18.736L104.247 16.144C104.895 15.856 107.235 15.664 111.267 15.568C111.483 15.784 111.591 16.204 111.591 16.828C113.703 15.796 115.035 15.28 115.587 15.28C116.163 15.28 116.859 15.424 117.675 15.712C118.515 15.976 119.151 16.264 119.583 16.576V17.188C119.583 19.156 119.343 20.98 118.863 22.66C118.455 22.828 117.915 22.912 117.243 22.912C116.571 22.912 115.947 22.876 115.371 22.804C115.299 22.492 115.083 21.28 114.723 19.168ZM134.243 16.828L134.279 17.944C134.279 19.816 134.135 21.04 133.847 21.616C133.055 21.904 131.951 22.048 130.535 22.048L129.383 18.412C129.071 18.292 128.639 18.232 128.087 18.232C127.535 18.232 127.079 18.4 126.719 18.736C126.383 19.072 126.215 19.468 126.215 19.924C126.215 20.38 126.395 20.8 126.755 21.184C127.115 21.544 127.487 21.832 127.871 22.048C128.255 22.264 128.807 22.552 129.527 22.912C130.271 23.248 130.823 23.512 131.183 23.704C131.567 23.896 132.047 24.184 132.623 24.568C133.223 24.952 133.679 25.312 133.991 25.648C134.759 26.56 135.143 27.556 135.143 28.636C135.143 30.484 134.435 31.912 133.019 32.92C131.627 33.928 129.911 34.432 127.871 34.432C126.791 34.432 125.603 34.24 124.307 33.856C123.035 33.472 121.955 32.956 121.067 32.308C121.067 30.58 121.235 28.972 121.571 27.484C122.531 27.364 123.311 27.304 123.911 27.304C124.511 27.304 124.919 27.316 125.135 27.34L125.567 30.832C126.167 31.048 126.887 31.156 127.727 31.156C128.567 31.156 129.227 30.988 129.707 30.652C130.211 30.316 130.463 29.848 130.463 29.248C130.463 28.624 130.187 28.108 129.635 27.7C129.083 27.292 128.327 26.872 127.367 26.44C126.407 25.984 125.663 25.612 125.135 25.324C124.607 25.012 124.043 24.616 123.443 24.136C122.219 23.2 121.607 22.048 121.607 20.68C121.607 18.976 122.195 17.656 123.371 16.72C124.571 15.76 126.179 15.28 128.195 15.28C130.211 15.28 132.227 15.796 134.243 16.828Z" fill="#B03030" fill-opacity="0.7"/>
</svg>
