<svg width="175" height="40" viewBox="0 0 175 40" fill="none" xmlns="http://www.w3.org/2000/svg">
<rect y="2.55319" width="175" height="34.0426" fill="#FFFEFE"/>
<path d="M8.964 11.4C8.964 14.76 8.94 17.4 8.892 19.32H12.564L12.924 16.836C14.148 16.836 15.336 17.136 16.488 17.736V24.864L14.112 25.044C13.536 24.18 13.2 23.424 13.104 22.776H8.856L8.784 29.544L12.348 29.94C12.348 30.876 12.072 31.896 11.52 33H1.692L1.368 31.02C2.928 30.42 3.936 30.072 4.392 29.976C4.368 28.56 4.344 26.568 4.32 24C4.224 18.24 4.14 13.884 4.068 10.932L1.08 9.996L1.368 7.8H19.044C19.116 8.448 19.152 9.276 19.152 10.284C19.152 11.268 18.972 12.624 18.612 14.352C18.084 14.52 17.28 14.604 16.2 14.604L15.408 14.568H15.228L14.4 11.4H8.964ZM28.9319 6.252C29.3879 6.252 29.6759 6.264 29.7959 6.288C29.7959 7.536 29.6399 8.628 29.3279 9.564C29.3039 11.052 29.2679 13.152 29.2199 15.864C29.1239 21.816 29.0519 26.376 29.0039 29.544L31.8119 29.868C31.8119 30.852 31.5359 31.896 30.9839 33H22.0199L21.6959 31.02C23.1839 30.468 24.2639 30.108 24.9359 29.94L24.2519 9.96C23.1239 9.84 22.1759 9.66 21.4079 9.42C21.4079 8.532 21.4919 7.668 21.6599 6.828C23.0759 6.444 25.4999 6.252 28.9319 6.252ZM42.6811 17.16C41.8171 17.16 40.8331 17.376 39.7291 17.808C39.4171 18.288 39.1171 19.14 38.8291 20.364C38.5651 21.564 38.4331 22.776 38.4331 24C38.4331 26.256 38.7691 27.864 39.4411 28.824C40.1131 29.76 41.1931 30.228 42.6811 30.228C44.1931 30.228 45.2851 29.76 45.9571 28.824C46.6291 27.864 46.9651 26.232 46.9651 23.928C46.9651 21.6 46.6171 19.896 45.9211 18.816C45.2491 17.712 44.1691 17.16 42.6811 17.16ZM42.6811 14.28C45.4891 14.28 47.7451 15.144 49.4491 16.872C51.1771 18.576 52.0411 20.964 52.0411 24.036C52.0411 27.084 51.1891 29.412 49.4851 31.02C47.7811 32.628 45.5131 33.432 42.6811 33.432C39.8491 33.432 37.5811 32.628 35.8771 31.02C34.1971 29.412 33.3571 27.084 33.3571 24.036C33.3571 20.964 34.2091 18.576 35.9131 16.872C37.6171 15.144 39.8731 14.28 42.6811 14.28ZM65.3642 14.712C65.6762 14.688 66.2762 14.676 67.1642 14.676C68.0762 14.676 68.8922 14.7 69.6122 14.748L71.9162 22.164L73.0322 27.24H73.6442L74.6882 22.236L76.0562 17.628C75.2402 17.484 74.2322 17.172 73.0322 16.692L73.3562 14.712H82.3202C82.8722 15.816 83.1482 16.86 83.1482 17.844C82.2122 17.988 81.2762 18.084 80.3402 18.132C79.7882 20.004 78.9362 22.764 77.7842 26.412C76.6562 30.036 75.9722 32.232 75.7322 33H70.8362L67.4882 21.912H67.3442L63.8882 33H59.2442L54.6002 18.168L51.7922 17.844C51.7922 16.86 52.0682 15.816 52.6202 14.712H61.5842L61.9082 16.692C60.9242 17.148 60.0962 17.46 59.4242 17.628L60.6122 22.2L61.5122 27.24H62.0882L63.1322 22.164L65.3642 14.712ZM94.5368 29.904C95.3528 29.904 97.0088 29.34 99.5048 28.212C100.033 28.98 100.429 29.868 100.693 30.876C99.3728 31.692 98.0768 32.328 96.8048 32.784C95.5568 33.216 94.6688 33.432 94.1408 33.432C91.2368 33.432 89.0288 32.628 87.5168 31.02C86.0288 29.412 85.2848 27.132 85.2848 24.18C85.2848 21.204 86.0288 18.816 87.5168 17.016C89.0048 15.192 91.2128 14.28 94.1408 14.28C96.4688 14.28 98.2448 15.036 99.4688 16.548C100.693 18.06 101.305 20.028 101.305 22.452C101.305 22.956 101.017 23.532 100.441 24.18L90.0728 24C90.1208 25.92 90.4808 27.384 91.1528 28.392C91.8248 29.4 92.9528 29.904 94.5368 29.904ZM93.8168 17.268C92.9048 17.268 92.0528 17.448 91.2608 17.808C90.7088 18.96 90.3608 20.028 90.2168 21.012C92.0888 20.94 94.2128 20.892 96.5888 20.868C96.4688 18.468 95.5448 17.268 93.8168 17.268ZM114.723 18.168C114.675 18.048 114.435 17.988 114.003 17.988C113.571 17.988 112.827 18.312 111.771 18.96C111.675 23.664 111.615 27.192 111.591 29.544L114.399 29.904C114.399 30.936 114.123 31.968 113.571 33H104.607L104.283 31.02C105.771 30.468 106.851 30.108 107.523 29.94L107.127 18.276C105.879 18.18 104.835 18 103.995 17.736L104.247 15.144C104.895 14.856 107.235 14.664 111.267 14.568C111.483 14.784 111.591 15.204 111.591 15.828C113.703 14.796 115.035 14.28 115.587 14.28C116.163 14.28 116.859 14.424 117.675 14.712C118.515 14.976 119.151 15.264 119.583 15.576V16.188C119.583 18.156 119.343 19.98 118.863 21.66C118.455 21.828 117.915 21.912 117.243 21.912C116.571 21.912 115.947 21.876 115.371 21.804C115.299 21.492 115.083 20.28 114.723 18.168Z" fill="#B03030" fill-opacity="0.7"/>
</svg>
